<?xml version="1.0" encoding="UTF-8"?>
<svg version="1.1" xmlns="http://www.w3.org/2000/svg" width="1024" height="1024">
<path d="M0 0 C1.76890787 -0.0037393 3.53781408 -0.00834193 5.30671769 -0.01373065 C10.1546925 -0.02594057 15.0025982 -0.02570257 19.85058486 -0.02334189 C25.08372994 -0.02293324 30.31685301 -0.03397718 35.54998779 -0.04345703 C45.79579264 -0.06005484 56.04157446 -0.06556595 66.28739163 -0.06668179 C74.61283506 -0.06763243 82.9382709 -0.07174354 91.26371193 -0.07808304 C114.86461062 -0.0956888 138.46549113 -0.10492245 162.06639644 -0.10342209 C163.33816558 -0.10334218 164.60993471 -0.10326227 165.92024231 -0.10317993 C167.19356206 -0.10309817 168.4668818 -0.10301641 169.77878699 -0.10293217 C190.43474474 -0.10211851 211.0906297 -0.12127817 231.74656638 -0.14945666 C252.95269819 -0.17815784 274.15879445 -0.19199862 295.36494619 -0.19026911 C307.27212908 -0.18960446 319.17923557 -0.19513022 331.08640099 -0.21662521 C341.21924464 -0.23480016 351.35197724 -0.23921441 361.4848301 -0.22560637 C366.65621921 -0.21905928 371.82739499 -0.21902237 376.99876404 -0.23631287 C381.73038143 -0.25197084 386.46161506 -0.24925485 391.19322268 -0.2317446 C392.90704806 -0.22865871 394.62090158 -0.2323665 396.33469381 -0.24346475 C398.66098577 -0.25753475 400.98592196 -0.24704134 403.31216717 -0.2303524 C405.25167532 -0.23100451 405.25167532 -0.23100451 407.23036546 -0.23166978 C412.5076723 0.52536966 415.55628001 2.95830944 419.02204895 6.89242554 C422.34622966 11.57090209 422.18983085 15.64634848 421.70954895 21.26742554 C419.65455377 26.40491349 415.42032013 29.86148643 410.55227757 32.38629246 C406.7423215 33.56722767 403.05370445 33.62295878 399.10089111 33.67805481 C398.23391936 33.69720086 397.36694761 33.71634691 396.47370398 33.73607314 C393.56210168 33.79663576 390.65049489 33.84207082 387.73860168 33.88632202 C385.63920319 33.92423811 383.53980718 33.96229173 381.44041348 34.00047207 C356.13645576 34.42973179 330.82874242 34.39777864 305.52199927 34.37096522 C298.39894727 34.36361537 291.27589711 34.36229645 284.15284186 34.3611676 C271.46186127 34.35900733 258.7708873 34.35243178 246.07991028 34.34286499 C233.79052258 34.33361087 221.50113672 34.32656981 209.21174622 34.32235718 C208.44747537 34.32209445 207.68320452 34.32183173 206.89577395 34.32156105 C203.05963526 34.32025551 199.22349655 34.31899192 195.38735783 34.31774914 C163.8280834 34.30747126 132.2688172 34.2898612 100.70954895 34.26742554 C100.71231433 35.14741494 100.71507971 36.02740435 100.71792889 36.9340601 C100.784194 58.35028097 100.83383213 79.76648416 100.86498547 101.18278599 C100.88045158 111.53956853 100.90153627 121.89628263 100.93586731 132.25302124 C100.96577743 141.28039389 100.98512581 150.30771696 100.99181443 159.33513778 C100.99572395 164.11469309 101.00490662 168.89410657 101.02673912 173.67361641 C101.0471297 178.17400484 101.05337754 182.67419325 101.04887199 187.17462349 C101.04969604 188.82456551 101.05564639 190.47451434 101.06716537 192.12441635 C101.08215007 194.38180755 101.07848126 196.63844925 101.0703125 198.89585876 C101.07307788 200.15779336 101.07584326 201.41972795 101.07869244 202.71990299 C100.44795915 208.78134151 98.05871122 213.91826327 93.70954895 218.26742554 C88.60877808 220.88637507 84.3349645 221.72724941 78.5884552 221.77914429 C77.84369431 221.79709549 77.09893341 221.81504669 76.331604 221.83354187 C73.97847472 221.88724864 71.62554351 221.92141096 69.27204895 221.95492554 C67.66590182 221.98813382 66.05978071 222.02262669 64.45368958 222.05844116 C60.53911996 222.14295128 56.62460501 222.20994925 52.70954895 222.26742554 C52.70954895 222.59742554 52.70954895 222.92742554 52.70954895 223.26742554 C48.08954895 223.26742554 43.46954895 223.26742554 38.70954895 223.26742554 C38.70954895 222.93742554 38.70954895 222.60742554 38.70954895 222.26742554 C31.46468344 222.24215815 24.21982921 222.22459374 16.97492981 222.2124939 C14.50812862 222.20745197 12.04133043 222.20061863 9.57453918 222.19198608 C6.03750366 222.17991429 2.5005075 222.17419598 -1.0365448 222.16976929 C-2.14694626 222.164608 -3.25734772 222.15944672 -4.40139771 222.15412903 C-5.42238052 222.1540535 -6.44336334 222.15397797 -7.49528503 222.15390015 C-8.39907394 222.15167953 -9.30286285 222.14945892 -10.23403931 222.14717102 C-12.28298686 222.03842092 -12.28298686 222.03842092 -13.29045105 223.26742554 C-15.62342538 223.30835491 -17.9575033 223.30984277 -20.29045105 223.26742554 C-20.29045105 222.93742554 -20.29045105 222.60742554 -20.29045105 222.26742554 C-23.92045105 222.26742554 -27.55045105 222.26742554 -31.29045105 222.26742554 C-31.29045105 222.59742554 -31.29045105 222.92742554 -31.29045105 223.26742554 C-34.59045105 223.26742554 -37.89045105 223.26742554 -41.29045105 223.26742554 C-41.29045105 222.60742554 -41.29045105 221.94742554 -41.29045105 221.26742554 C-72.31045105 221.59742554 -103.33045105 221.92742554 -135.29045105 222.26742554 C-135.29045105 222.59742554 -135.29045105 222.92742554 -135.29045105 223.26742554 C-136.94045105 223.26742554 -138.59045105 223.26742554 -140.29045105 223.26742554 C-140.29045105 222.93742554 -140.29045105 222.60742554 -140.29045105 222.26742554 C-146.44218485 222.65637387 -149.94024278 224.5967561 -154.85295105 228.20492554 C-155.54985046 228.7007312 -156.24674988 229.19653687 -156.96476746 229.70736694 C-158.39690182 230.72836848 -159.82499078 231.75506856 -161.24894714 232.78744507 C-163.09424324 234.12518544 -164.94876839 235.44806287 -166.8099823 236.76351929 C-169.06929968 238.36202806 -171.31973982 239.97191284 -173.56388855 241.59164429 C-176.34465691 243.59693291 -179.14598166 245.57075604 -181.95451355 247.53695679 C-183.56659494 248.67613506 -185.17857514 249.81545653 -186.79045105 250.95492554 C-187.54439148 251.47747925 -188.29833191 252.00003296 -189.07511902 252.53842163 C-197.97790899 258.86969257 -204.36612873 266.36190867 -206.38981628 277.30990601 C-207.77424943 286.13736914 -207.51796644 294.99142349 -207.4506073 303.90023804 C-207.44432145 305.78726898 -207.43908652 307.67430369 -207.43484497 309.56134033 C-207.42163048 314.49923923 -207.39724236 319.43701111 -207.36949158 324.37484741 C-207.32614601 332.28261394 -207.2965036 340.19041371 -207.27345085 348.09826279 C-207.26332121 350.84229117 -207.24626595 353.58621239 -207.22845459 356.3302002 C-207.18983833 364.38335295 -207.23830549 372.26575805 -208.29045105 380.26742554 C-207.57437683 380.10516479 -206.85830261 379.94290405 -206.12052917 379.77572632 C-203.3466647 379.27752188 -200.82374202 379.13815398 -198.00920105 379.13461304 C-197.00759949 379.13267944 -196.00599792 379.13074585 -194.9740448 379.12875366 C-193.92345886 379.13326538 -192.87287292 379.1377771 -191.79045105 379.14242554 C-190.18363464 379.14532593 -190.18363464 379.14532593 -188.5443573 379.14828491 C-181.0833452 379.18898134 -173.71204514 379.45568868 -166.29045105 380.26742554 C-166.28787292 379.68219116 -166.2852948 379.09695679 -166.28263855 378.49398804 C-165.56073435 362.46771473 -158.37784902 345.58644546 -148.5209198 333.00961304 C-147.00200161 331.21450141 -147.00200161 331.21450141 -147.29045105 328.26742554 C-146.39713074 327.88264038 -146.39713074 327.88264038 -145.48576355 327.49008179 C-143.07805669 326.14913473 -141.88439469 324.8428077 -140.16545105 322.70492554 C-123.61058638 303.31508404 -100.35156077 291.74157668 -75.29045105 288.26742554 C-73.33304912 288.20354166 -71.37374958 288.18104385 -69.41545105 288.20492554 C-68.44865417 288.21394897 -67.4818573 288.22297241 -66.48576355 288.23226929 C-65.39908386 288.24967163 -65.39908386 288.24967163 -64.29045105 288.26742554 C-63.96045105 287.60742554 -63.63045105 286.94742554 -63.29045105 286.26742554 C-62.63045105 286.59742554 -61.97045105 286.92742554 -61.29045105 287.26742554 C-59.26921555 287.46092571 -57.24739023 287.64981083 -55.22331238 287.81088257 C-25.13383209 290.3014119 0.65935567 304.7995547 20.49079895 327.49398804 C33.25336135 343.44719104 39.44785329 360.02437113 43.70954895 380.26742554 C92.21954895 379.93742554 140.72954895 379.60742554 190.70954895 379.26742554 C192.35954895 372.66742554 194.00954895 366.06742554 195.70954895 359.26742554 C207.22693387 330.04739341 226.84476324 308.24591718 255.52204895 295.40414429 C278.90057003 285.44678522 307.3561243 284.94816205 331.20954895 293.45492554 C343.47838205 298.49794282 354.4176455 304.86162849 364.70954895 313.26742554 C365.91031067 314.2380896 365.91031067 314.2380896 367.1353302 315.22836304 C385.73888167 330.97230124 397.12461228 353.59192034 401.70954895 377.26742554 C401.70954895 378.25742554 401.70954895 379.24742554 401.70954895 380.26742554 C402.53338577 380.25045624 403.3572226 380.23348694 404.20602417 380.21600342 C411.98851769 380.05759361 419.77110824 379.90943635 427.55400944 379.77264977 C431.55480153 379.70197691 435.55544036 379.62741032 439.5559845 379.54379272 C443.42026475 379.46316907 447.28460939 379.39297278 451.14921379 379.32985306 C452.6199835 379.30402754 454.09069342 379.27451232 455.56131172 379.24116135 C457.62899452 379.19491473 459.69650527 379.16206597 461.76448059 379.13217163 C462.93918411 379.10996552 464.11388763 379.0877594 465.32418823 379.06488037 C469.75161616 379.32977212 474.01470309 379.97177891 477.60017395 382.71273804 C481.9273046 388.05947993 484.76802536 392.87579348 484.64704895 399.89242554 C483.00805406 405.79280713 479.90946939 410.03191948 474.70954895 413.26742554 C466.8324475 415.56625623 459.20222254 415.52723245 451.0493927 415.46273804 C449.64978235 415.45900027 448.25016934 415.45615692 446.85055542 415.4541626 C443.19601508 415.44658614 439.54163787 415.4269904 435.88716125 415.40475464 C432.14633896 415.38416595 428.40548989 415.37513325 424.66462708 415.36508179 C417.34619395 415.34373778 410.02789445 415.30967578 402.70954895 415.26742554 C402.20394987 416.70296579 401.70527405 418.14094573 401.20954895 419.57992554 C400.93111145 420.38043335 400.65267395 421.18094116 400.36579895 422.00570679 C399.57021788 424.35511975 399.57021788 424.35511975 399.70954895 427.26742554 C399.04954895 427.26742554 398.38954895 427.26742554 397.70954895 427.26742554 C397.61802551 427.93515991 397.52650208 428.60289429 397.4322052 429.29086304 C396.50977815 433.09026525 394.89892173 436.42166418 393.14704895 439.89242554 C392.78989807 440.60028198 392.43274719 441.30813843 392.06477356 442.03744507 C384.65864631 456.35584945 371.21363576 475.41273541 355.70954895 481.26742554 C355.37954895 481.92742554 355.04954895 482.58742554 354.70954895 483.26742554 C329.02501022 499.48923947 299.37535176 503.24853129 269.8853302 497.52523804 C259.92394045 495.13281074 250.68235029 491.19074409 241.70954895 486.26742554 C241.37954895 485.60742554 241.04954895 484.94742554 240.70954895 484.26742554 C239.60353333 483.83623413 239.60353333 483.83623413 238.47517395 483.39633179 C222.43507368 476.84888973 209.38964631 457.64383678 200.70954895 443.26742554 C200.04954895 442.60742554 199.38954895 441.94742554 198.70954895 441.26742554 C199.36954895 441.26742554 200.02954895 441.26742554 200.70954895 441.26742554 C199.84329895 439.68961304 199.84329895 439.68961304 198.95954895 438.07992554 C195.41503006 430.99088777 192.55105957 423.24163307 192.70954895 415.26742554 C192.06922887 415.27350106 191.42890879 415.27957659 190.76918507 415.28583622 C175.08958693 415.43419499 159.40994418 415.57587521 143.73022175 415.71038914 C136.14720746 415.77559881 128.56422431 415.8429563 120.98127747 415.9156189 C114.36142835 415.97904701 107.74155619 416.03819199 101.1216256 416.09248108 C97.62603311 416.1212899 94.13048559 416.15204747 90.63495827 416.18795967 C74.95342337 416.34761865 59.36435163 416.25438062 43.70954895 415.26742554 C43.50493073 415.92119738 43.30031252 416.57496922 43.08949375 417.24855232 C42.6857725 418.53722363 42.6857725 418.53722363 42.27389526 419.85192871 C42.00740205 420.70292711 41.74090883 421.55392551 41.46634007 422.43071175 C36.84313505 437.08740763 30.99325478 449.6752195 20.70954895 461.26742554 C19.88712708 462.23293335 19.0647052 463.19844116 18.21736145 464.19320679 C0.22810391 484.94494652 -25.03375775 497.54569079 -52.42741394 499.8555603 C-78.87791224 501.71661096 -104.25740494 495.22691795 -125.25138855 478.73617554 C-127.14209537 477.0726027 -127.14209537 477.0726027 -129.29045105 477.26742554 C-130.73576355 475.83383179 -130.73576355 475.83383179 -132.41545105 473.82992554 C-133.03291199 473.10676147 -133.65037292 472.38359741 -134.2865448 471.63851929 C-134.94783386 470.85605835 -135.60912292 470.07359741 -136.29045105 469.26742554 C-137.67881205 467.63603673 -139.07456633 466.01090848 -140.47795105 464.39242554 C-141.42734558 463.28254272 -141.42734558 463.28254272 -142.3959198 462.15023804 C-144.16997844 460.17281593 -144.16997844 460.17281593 -146.4662323 459.25961304 C-147.06822449 458.93219116 -147.67021667 458.60476929 -148.29045105 458.26742554 C-148.64701072 456.94011469 -148.97743193 455.60567362 -149.29045105 454.26742554 C-150.65274642 451.82389783 -152.04772146 449.42019963 -153.47795105 447.01742554 C-156.72793524 441.40068969 -159.51690395 435.78592726 -161.79045105 429.70492554 C-162.0330365 429.06329468 -162.27562195 428.42166382 -162.52555847 427.7605896 C-164.01137851 423.61607594 -164.7167286 419.61869498 -165.29045105 415.26742554 C-165.9528479 415.27186676 -166.61524475 415.27630798 -167.29771423 415.28088379 C-174.24172287 415.32540524 -181.18569043 415.3554107 -188.12980652 415.37728882 C-190.71543527 415.38729687 -193.30105286 415.40090743 -195.88664246 415.41830444 C-199.62023185 415.44278228 -203.35367056 415.45396098 -207.08732605 415.46273804 C-208.22844849 415.47306061 -209.36957092 415.48338318 -210.54527283 415.49401855 C-227.83251795 415.49639209 -227.83251795 415.49639209 -234.29045105 412.26742554 C-234.29045105 411.60742554 -234.29045105 410.94742554 -234.29045105 410.26742554 C-234.90920105 409.97867554 -235.52795105 409.68992554 -236.16545105 409.39242554 C-239.28596807 407.74038712 -240.1640251 406.64670338 -241.29045105 403.26742554 C-242.13234222 400.35808594 -242.43157725 397.74042408 -242.47990417 394.71420288 C-242.4966217 393.82002655 -242.51333923 392.92585022 -242.53056335 392.00457764 C-242.54413879 391.04717682 -242.55771423 390.089776 -242.57170105 389.10336304 C-242.59011047 388.11494415 -242.6085199 387.12652527 -242.62748718 386.1081543 C-242.7061332 381.88042967 -242.77404995 377.65254909 -242.84269714 373.4246521 C-242.89434154 370.338307 -242.95160798 367.25210192 -243.00920105 364.16586304 C-243.02277649 363.20441376 -243.03635193 362.24296448 -243.05033875 361.25238037 C-243.06705627 360.36450836 -243.0837738 359.47663635 -243.10099792 358.56185913 C-243.113526 357.77894501 -243.12605408 356.99603088 -243.13896179 356.18939209 C-243.17603545 354.18329828 -243.17603545 354.18329828 -244.29045105 352.26742554 C-243.63045105 352.26742554 -242.97045105 352.26742554 -242.29045105 352.26742554 C-242.30742035 351.51004089 -242.32438965 350.75265625 -242.34187317 349.97232056 C-242.50176818 342.73840787 -242.64974245 335.50438529 -242.78522682 328.26997757 C-242.85523137 324.55314113 -242.92940991 320.83649809 -243.01408386 317.1199646 C-244.19691977 264.746348 -244.19691977 264.746348 -230.6459198 245.47445679 C-229.0287811 243.27303606 -229.0287811 243.27303606 -229.29045105 240.26742554 C-227.65670358 239.21450247 -225.9832765 238.22247516 -224.29045105 237.26742554 C-222.82384025 235.96618121 -221.38793412 234.62982481 -219.97795105 233.26742554 C-213.91813689 227.71857204 -207.24613055 223.29383578 -200.44328308 218.72640991 C-194.67325813 214.81603691 -189.01226583 210.74568583 -183.32902527 206.71078491 C-181.35313292 205.3118058 -179.37144957 203.9214405 -177.3881073 202.53305054 C-173.99223206 200.15098917 -170.63888206 197.71569392 -167.29045105 195.26742554 C-166.54537292 194.75824585 -165.8002948 194.24906616 -165.03263855 193.72445679 C-157.55604506 188.07917466 -152.4210685 178.54122592 -148.29045105 170.26742554 C-148.29045105 169.60742554 -148.29045105 168.94742554 -148.29045105 168.26742554 C-147.30517383 167.25291639 -146.30251798 166.2552112 -145.29045105 165.26742554 C-144.40643688 163.99193889 -143.56283666 162.68791935 -142.75138855 161.36508179 C-142.2620282 160.57142212 -141.77266785 159.77776245 -141.26847839 158.96005249 C-140.73947937 158.0921106 -140.21048035 157.2241687 -139.66545105 156.32992554 C-139.10422546 155.41622192 -138.54299988 154.50251831 -137.96476746 153.56112671 C-136.06735903 150.46683201 -134.17782705 147.36784931 -132.29045105 144.26742554 C-131.94852722 143.70579712 -131.60660339 143.1441687 -131.25431824 142.56552124 C-127.25816659 136.00028318 -123.27040641 129.42997082 -119.2865448 122.85726929 C-113.11460005 112.67472075 -106.90875334 102.51335326 -100.6615448 92.37680054 C-99.32950135 90.21534972 -97.99747047 88.05389116 -96.66545105 85.89242554 C-95.99151306 84.79905884 -95.31757507 83.70569214 -94.62321472 82.57919312 C-90.29249478 75.54476686 -85.99352286 68.49197512 -81.71672058 61.4246521 C-78.89544683 56.76259317 -76.06421439 52.10662725 -73.22990417 47.45248413 C-71.99234165 45.42010237 -70.75648662 43.38667923 -69.52287292 41.35189819 C-57.54343726 21.64664585 -45.61899549 7.90170295 -22.64673901 1.20528221 C-15.21890304 -0.3884641 -7.55862474 -0.01514159 0 0 Z M62.57322693 32.76429749 C59.28324299 33.34232449 56.23168755 33.35727173 52.89070129 33.31747437 C52.22489044 33.31119522 51.55907959 33.30491608 50.87309265 33.29844666 C49.43317465 33.28464513 47.99327574 33.26872098 46.55340195 33.25089455 C44.26484683 33.22409803 41.97639076 33.20632497 39.68772888 33.19142151 C33.18228927 33.14884604 26.67704247 33.10143914 20.17195129 33.02059937 C16.18504644 32.97171262 12.1984127 32.9429778 8.21124649 32.92685509 C6.70192016 32.91703896 5.19262097 32.89995501 3.68346786 32.87507057 C-8.88329071 32.67257357 -19.89658579 34.25415423 -29.29045105 43.26742554 C-34.19733732 48.96921888 -38.27484534 55.15944603 -42.16545105 61.57992554 C-42.71080505 62.47018433 -43.25615906 63.36044312 -43.81803894 64.27767944 C-45.64849187 67.27045849 -47.4700414 70.26852791 -49.29045105 73.26742554 C-50.31419473 74.949836 -51.33794095 76.63224492 -52.36181641 78.3145752 C-55.969521 84.24362665 -59.56892756 90.17768493 -63.16564941 96.11340332 C-67.16011577 102.7044704 -71.1678181 109.28745728 -75.1771698 115.86947632 C-78.13005562 120.71735785 -81.08003419 125.56696591 -84.02482605 130.41976929 C-84.95452209 131.95057129 -84.95452209 131.95057129 -85.90299988 133.51229858 C-87.07303478 135.43898214 -88.24222004 137.36618207 -89.4103241 139.29403687 C-94.34278862 147.41212852 -99.44613974 155.41545777 -104.60295105 163.39242554 C-107.74781132 168.33229738 -110.75106997 173.35026429 -113.72795105 178.39242554 C-114.17759216 179.15184448 -114.62723328 179.91126343 -115.09049988 180.69369507 C-117.28637316 183.79731557 -117.28637316 183.79731557 -118.29045105 187.26742554 C-114.99045105 187.26742554 -111.69045105 187.26742554 -108.29045105 187.26742554 C-108.29045105 186.60742554 -108.29045105 185.94742554 -108.29045105 185.26742554 C-107.63045105 185.92742554 -106.97045105 186.58742554 -106.29045105 187.26742554 C-103.4090297 187.56281222 -103.4090297 187.56281222 -100.04045105 187.49789429 C-98.1687323 187.4949939 -98.1687323 187.4949939 -96.25920105 187.49203491 C-94.94951355 187.47978882 -93.63982605 187.46754272 -92.29045105 187.45492554 C-90.3259198 187.45395874 -90.3259198 187.45395874 -88.32170105 187.45297241 C-82.12244617 187.76716524 -82.12244617 187.76716524 -76.29045105 186.26742554 C-75.48607605 186.43242554 -74.68170105 186.59742554 -73.85295105 186.76742554 C-71.18596774 187.50596291 -71.18596774 187.50596291 -68.29045105 186.26742554 C-66.67011834 186.50132211 -65.05029761 186.73980672 -63.4344635 187.00299072 C-59.01542513 187.54801908 -54.55251116 187.38771446 -50.1068573 187.36508179 C-49.05135178 187.36366684 -47.99584625 187.36225189 -46.90835571 187.36079407 C-43.55652462 187.35522276 -40.20476176 187.34267555 -36.85295105 187.32992554 C-34.57235306 187.32490683 -32.29175402 187.32034457 -30.01115417 187.31625366 C-24.43756342 187.30526273 -18.86401211 187.2885533 -13.29045105 187.26742554 C-13.29045105 186.60742554 -13.29045105 185.94742554 -13.29045105 185.26742554 C-12.58533386 185.59484741 -11.88021667 185.92226929 -11.1537323 186.25961304 C-8.05177938 187.35143276 -5.75039052 187.4712795 -2.47795105 187.39242554 C-1.50213074 187.37437866 -0.52631042 187.35633179 0.4790802 187.33773804 C1.21513489 187.31453491 1.95118958 187.29133179 2.70954895 187.26742554 C3.03954895 186.60742554 3.36954895 185.94742554 3.70954895 185.26742554 C4.36954895 185.92742554 5.02954895 186.58742554 5.70954895 187.26742554 C7.38109795 186.95950862 9.04760442 186.62355651 10.70954895 186.26742554 C11.57676575 186.49341431 11.57676575 186.49341431 12.46150208 186.72396851 C15.44449719 187.44509656 18.23518994 187.39727654 21.30329895 187.40023804 C22.58075989 187.4015271 23.85822083 187.40281616 25.1743927 187.40414429 C25.83680969 187.40204956 26.49922668 187.39995483 27.18171692 187.39779663 C29.20278937 187.39244344 31.22363961 187.39775318 33.2447052 187.40414429 C34.52216614 187.40285522 35.79962708 187.40156616 37.11579895 187.40023804 C38.86860168 187.39854614 38.86860168 187.39854614 40.65681458 187.39682007 C43.22664903 187.28789394 45.25693019 186.94668491 47.70954895 186.26742554 C50.70954895 186.26742554 50.70954895 186.26742554 53.89704895 186.76742554 C58.39070381 187.44080425 58.39070381 187.44080425 65.70954895 187.26742554 C65.70954895 136.11742554 65.70954895 84.96742554 65.70954895 32.26742554 C64.50632557 32.22966948 64.50632557 32.22966948 62.57322693 32.76429749 Z M-112.29045105 342.26742554 C-113.11287292 343.05633179 -113.9352948 343.84523804 -114.78263855 344.65805054 C-128.4416704 358.8702519 -134.23797164 376.40114982 -134.3021698 395.81039429 C-133.54513435 416.33686968 -124.8383391 434.83488248 -110.29045105 449.26742554 C-96.83029274 461.28606756 -79.27642039 468.81838458 -61.07951355 468.47445679 C-41.99115823 467.05753405 -26.72153701 460.75939811 -12.29045105 448.26742554 C-11.61627136 447.70539429 -10.94209167 447.14336304 -10.2474823 446.56430054 C3.16565421 434.40960475 10.52769083 415.4314412 11.65437317 397.75375366 C12.20221726 383.65892454 8.6585047 369.02173244 0.70954895 357.26742554 C0.04954895 357.26742554 -0.61045105 357.26742554 -1.29045105 357.26742554 C-1.36650574 356.55070679 -1.44256042 355.83398804 -1.5209198 355.09555054 C-4.22972116 345.1403618 -17.7304988 336.06132737 -26.07609558 331.23471069 C-33.82559332 326.98737008 -41.54176374 323.79844582 -50.29045105 322.26742554 C-51.28045105 322.08180054 -52.27045105 321.89617554 -53.29045105 321.70492554 C-75.8737742 318.79720153 -96.39163377 326.16625968 -112.29045105 342.26742554 Z M251.70954895 336.26742554 C251.0856427 336.70441772 250.46173645 337.14140991 249.81892395 337.59164429 C235.3736611 348.83059879 227.02428105 367.22573941 224.1197052 384.84555054 C222.3130985 399.91781213 224.96007299 414.71284607 231.70954895 428.26742554 C232.1787677 429.24066772 232.64798645 430.21390991 233.13142395 431.21664429 C242.52197658 448.99826003 258.90164899 460.18594549 277.70954895 466.26742554 C282.03595413 467.26766744 286.28731466 467.89195281 290.70954895 468.26742554 C291.43915833 468.33832397 292.1687677 468.40922241 292.92048645 468.48226929 C312.63140888 469.42627898 331.77754716 461.20642915 346.39704895 448.51742554 C361.18851396 434.54770858 369.60866679 415.63974261 370.20954895 395.32992554 C369.89785834 384.03114096 367.7233608 371.98045499 361.70954895 362.26742554 C361.22099426 361.41406616 360.73243958 360.56070679 360.2290802 359.68148804 C357.98407308 355.81231527 355.95963739 352.36233734 352.70954895 349.26742554 C351.87098186 348.22996753 351.03794496 347.18802294 350.20954895 346.14242554 C345.74679422 340.86826086 339.91975885 335.37253048 333.70954895 332.26742554 C332.28835754 331.51332397 332.28835754 331.51332397 330.8384552 330.74398804 C304.18587727 316.80449733 276.41919373 318.83689586 251.70954895 336.26742554 Z " fill="#050505" transform="translate(340.2904510498047,247.73257446289063)"/>
<path d="M0 0 C0.99 0.33 1.98 0.66 3 1 C4.78839978 1.08322092 6.57980842 1.10735113 8.37011719 1.09765625 C9.46845886 1.09435303 10.56680054 1.0910498 11.69842529 1.08764648 C12.8859137 1.07934814 14.0734021 1.0710498 15.296875 1.0625 C16.51900696 1.05871338 17.74113892 1.05492676 19.00030518 1.05102539 C24.23722389 1.03465871 29.47406514 1.00660617 34.7109375 0.97949219 C38.53124632 0.96138194 42.35154231 0.94929987 46.171875 0.9375 C47.94096222 0.92505249 47.94096222 0.92505249 49.74578857 0.91235352 C65.61973744 0.86515502 65.61973744 0.86515502 72.265625 6.26171875 C75.82620335 9.83031642 76.8161918 13.55579271 77.4375 18.4375 C76.74780085 24.05362162 74.63029614 28.1226893 70.9375 32.375 C63.21138282 36.64902227 53.73179767 36.26438314 45.12890625 36.125 C44.04415512 36.11742676 42.95940399 36.10985352 41.84178162 36.10205078 C38.41518356 36.07784316 34.98894101 36.04055817 31.5625 36 C27.02214515 35.94683351 22.48195455 35.90689698 17.94140625 35.875 C16.90287003 35.85840332 15.8643338 35.84180664 14.79432678 35.82470703 C13.34648048 35.81479736 13.34648048 35.81479736 11.86938477 35.8046875 C10.60010887 35.78897705 10.60010887 35.78897705 9.30519104 35.77294922 C6.7880862 36.02087254 5.17100337 36.73530218 3 38 C3 37.34 3 36.68 3 36 C1.515 36.495 1.515 36.495 0 37 C-1.91918945 37.02172852 -1.91918945 37.02172852 -4.11328125 36.87890625 C-4.93932861 36.83048584 -5.76537598 36.78206543 -6.61645508 36.73217773 C-7.95099731 36.64818726 -7.95099731 36.64818726 -9.3125 36.5625 C-20.54758094 35.93113805 -31.75057428 35.89413455 -43 36 C-43.33 36.99 -43.66 37.98 -44 39 C-44.33 38.34 -44.66 37.68 -45 37 C-49.31230185 36.82792895 -53.62482622 36.66247875 -57.9375 36.5 C-59.21463867 36.45157959 -60.49177734 36.40315918 -61.80761719 36.35327148 C-70.04715432 36.05781123 -78.24310636 35.9446419 -86.484375 36.16015625 C-92.87337262 35.86910191 -100.1852605 34.50984834 -105 30 C-108.22589872 24.37961975 -108.4438168 19.18778628 -107 13 C-105.75 10.3125 -105.75 10.3125 -104 8 C-103.360625 7.113125 -102.72125 6.22625 -102.0625 5.3125 C-93.05806311 -1.48676867 -77.85363252 0.75937607 -67.05078125 0.83984375 C-65.14218959 0.84612516 -63.23359423 0.85136158 -61.32499695 0.85560608 C-56.33926225 0.86881303 -51.35365366 0.89321845 -46.36798096 0.92095947 C-38.35044943 0.96436154 -30.33288008 0.99373817 -22.31526756 1.0170002 C-19.51598492 1.02724239 -16.71680081 1.04427666 -13.91755676 1.06199646 C-12.21758105 1.06881834 -10.51760446 1.07542719 -8.81762695 1.08178711 C-8.03591125 1.08852448 -7.25419556 1.09526184 -6.4487915 1.10220337 C-4.63221236 1.10609415 -2.8156353 1.05868031 -1 1 C-0.67 0.67 -0.34 0.34 0 0 Z " fill="#050505" transform="translate(790,328)"/>
<path d="M0 0 C0.66 0 1.32 0 2 0 C2 0.66 2 1.32 2 2 C3.65 1.34 5.3 0.68 7 0 C7.495 0.495 7.495 0.495 8 1 C9.42433007 1.09121188 10.85317672 1.11301877 12.28041077 1.10679626 C13.20419525 1.10528061 14.12797974 1.10376495 15.07975769 1.10220337 C16.10152603 1.095466 17.12329437 1.08872864 18.17602539 1.08178711 C19.24596741 1.07872055 20.31590942 1.07565399 21.41827393 1.07249451 C23.75150858 1.06531882 26.08473717 1.0559183 28.4179554 1.04459953 C32.11257959 1.02727377 35.80716088 1.01692968 39.5018158 1.00868225 C50.01028636 0.9841779 60.51869713 0.94876453 71.02709961 0.90405273 C77.44730177 0.87722775 83.86747004 0.86020983 90.28771782 0.84918404 C92.73448369 0.84298217 95.18124302 0.83298679 97.62797737 0.81910515 C101.05809912 0.79982954 104.48804416 0.79298397 107.91821289 0.78881836 C109.42961098 0.77567596 109.42961098 0.77567596 110.97154236 0.76226807 C117.98794383 0.77196637 125.43472581 0.85120614 130.875 5.875 C131.42929687 6.36742187 131.98359375 6.85984375 132.5546875 7.3671875 C136.36935978 11.67673619 136.42763572 15.73970478 136.31640625 21.30859375 C135.7169643 26.40755059 133.09341652 29.03675211 129.375 32.3125 C125.64454088 34.96308938 123.55864123 35.0991009 119 35 C119 35.99 119 36.98 119 38 C115.98968256 38.93423645 115.13349732 39.04449911 112 38 C112 37.34 112 36.68 112 36 C110.50919922 36.2475 110.50919922 36.2475 108.98828125 36.5 C105.03795911 37.0650423 101.17893773 37.06367199 97.1875 37 C92.42600837 36.71782296 92.42600837 36.71782296 88 38 C88 37.34 88 36.68 88 36 C87.28086426 36.03552979 86.56172852 36.07105957 85.82080078 36.10766602 C62.17346055 37.21411476 38.65267674 36.75711914 15 36 C15 36.66 15 37.32 15 38 C11.71023192 39.09658936 10.28696233 38.79953138 7 38 C7 37.67 7 37.34 7 37 C0.07 36.505 0.07 36.505 -7 36 C-7.495 36.99 -7.495 36.99 -8 38 C-8 37.34 -8 36.68 -8 36 C-8.68513672 36.01571045 -9.37027344 36.0314209 -10.07617188 36.04760742 C-13.21736203 36.11044183 -16.35841939 36.14914349 -19.5 36.1875 C-20.57765625 36.21263672 -21.6553125 36.23777344 -22.765625 36.26367188 C-30.00355604 36.32987246 -36.25785412 36.12437227 -42.05859375 31.28125 C-42.51363281 30.6934375 -42.96867188 30.105625 -43.4375 29.5 C-43.91058594 28.9121875 -44.38367188 28.324375 -44.87109375 27.71875 C-47.64398529 23.49704662 -47.55866152 18.85792629 -47 14 C-45.39391124 8.8441482 -42.10706862 5.78773365 -37.57275391 3.05664062 C-32.27543764 0.88101102 -26.5875028 1.17210789 -20.9375 1.125 C-19.69677734 1.09148437 -18.45605469 1.05796875 -17.17773438 1.0234375 C-11.3391599 0.89848138 -5.74236231 0.89077697 0 2 C0 1.34 0 0.68 0 0 Z " fill="#050505" transform="translate(801,409)"/>
<path d="M0 0 C2.79326861 0.35265015 2.79326861 0.35265015 4.84553528 -0.87588501 C8.67336174 -1.1206783 12.51077155 -1.06110241 16.34553528 -1.06338501 C17.39741028 -1.0756311 18.44928528 -1.0878772 19.53303528 -1.10049438 C29.03725567 -1.11813836 37.95347045 -0.55817169 45.84553528 5.12411499 C49.32488399 9.06127275 50.64466147 12.66296818 51.00959778 17.81552124 C50.63438208 23.09534217 48.12038086 26.88195775 44.40803528 30.49911499 C40.11445552 33.22187289 36.60080161 34.37338985 31.51464844 34.3848114 C30.45915298 34.39189621 29.40365753 34.39898102 28.31617737 34.40628052 C27.16852905 34.4038031 26.02088074 34.40132568 24.8384552 34.39877319 C23.62162552 34.40388412 22.40479584 34.40899506 21.15109253 34.41426086 C17.82029697 34.42576906 14.4897505 34.4282319 11.15895247 34.42569757 C8.37339346 34.42462594 5.58785725 34.42951631 2.80230314 34.43430299 C-3.77355423 34.44539119 -10.34935448 34.44583999 -16.92521667 34.43978882 C-23.69567878 34.43375403 -30.46593281 34.4460489 -37.23635942 34.46735889 C-43.05990506 34.48501061 -48.8833847 34.49097048 -54.70695609 34.48772115 C-58.18028305 34.48591322 -61.6534617 34.48849478 -65.1267643 34.50243568 C-69.00432527 34.51741702 -72.88162423 34.50801269 -76.75920105 34.49642944 C-78.47156448 34.50789505 -78.47156448 34.50789505 -80.21852112 34.51959229 C-86.57372905 34.47769444 -91.40165974 33.90197089 -97.15446472 31.12411499 C-101.16227877 27.01083215 -103.43853741 23.08549911 -103.52946472 17.31161499 C-103.39773264 12.05008085 -102.39980264 9.28480464 -99.15446472 5.12411499 C-93.35615163 0.71147765 -88.05992287 0.00457734 -80.96183777 -0.09707642 C-80.24407669 -0.10858231 -79.52631561 -0.1200882 -78.7868042 -0.13194275 C-76.41330709 -0.16861564 -74.03978412 -0.19830148 -71.66618347 -0.22744751 C-70.00389272 -0.25059423 -68.34160535 -0.27398477 -66.67932129 -0.29760742 C-63.1882407 -0.34606901 -59.69713611 -0.39097199 -56.20597839 -0.4335022 C-51.77275944 -0.48786968 -47.33974141 -0.55182405 -42.90669537 -0.61867714 C-39.46708308 -0.66929018 -36.02741279 -0.71418496 -32.5877018 -0.75751877 C-30.95612415 -0.77881894 -29.32456879 -0.80191778 -27.69304466 -0.82698441 C-18.40187268 -0.96661389 -9.26104024 -0.80708169 0 0 Z " fill="#070707" transform="translate(886.1544647216797,491.8758850097656)"/>
<path d="M0 0 C76.56 0 153.12 0 232 0 C232 0.33 232 0.66 232 1 C220.78 1.33 209.56 1.66 198 2 C198 2.33 198 2.66 198 3 C193.38 3 188.76 3 184 3 C184 2.67 184 2.34 184 2 C176.75513449 1.97473261 169.51028026 1.9571682 162.26538086 1.94506836 C159.79857967 1.94002644 157.33178148 1.93319309 154.86499023 1.92456055 C151.32795471 1.91248875 147.79095855 1.90677044 144.25390625 1.90234375 C143.14350479 1.89718246 142.03310333 1.89202118 140.88905334 1.88670349 C139.86807053 1.88662796 138.84708771 1.88655243 137.79516602 1.88647461 C136.89137711 1.884254 135.9875882 1.88203339 135.05641174 1.87974548 C133.00746419 1.77099538 133.00746419 1.77099538 132 3 C129.66702567 3.04092937 127.33294775 3.04241723 125 3 C125 2.67 125 2.34 125 2 C121.37 2 117.74 2 114 2 C114 2.33 114 2.66 114 3 C110.7 3 107.4 3 104 3 C104 2.34 104 1.68 104 1 C72.98 1.33 41.96 1.66 10 2 C10 2.33 10 2.66 10 3 C8.35 3 6.7 3 5 3 C5 2.67 5 2.34 5 2 C3.35 1.67 1.7 1.34 0 1 C0 0.67 0 0.34 0 0 Z " fill="#3F3F3F" transform="translate(195,468)"/>
<path d="M0 0 C0.66 0 1.32 0 2 0 C2 0.66 2 1.32 2 2 C3.65 1.34 5.3 0.68 7 0 C7.495 0.495 7.495 0.495 8 1 C11.00313172 1.08463937 13.98304907 1.10426062 16.98608398 1.08178711 C17.92911377 1.07872055 18.87214355 1.07565399 19.84375 1.07249451 C21.89870987 1.06532125 23.95366286 1.05592195 26.00860405 1.04459953 C29.25631538 1.02728927 32.50397806 1.01693584 35.75172424 1.00868225 C44.98825696 0.98415537 54.22472422 0.94859639 63.46118164 0.90405273 C69.10329313 0.87733187 74.74536651 0.86024803 80.38752937 0.84918404 C82.54340078 0.84295671 84.69926456 0.8329298 86.85510063 0.81910515 C89.86495723 0.79997792 92.87461248 0.79300529 95.88452148 0.78881836 C96.78278152 0.78005676 97.68104156 0.77129517 98.60652161 0.76226807 C104.77210438 0.77210438 104.77210438 0.77210438 107 3 C60.14 3 13.28 3 -35 3 C-35 2.67 -35 2.34 -35 2 C-30.47955967 1.8020933 -25.95864537 1.6185246 -21.4375 1.4375 C-20.16068359 1.38142578 -18.88386719 1.32535156 -17.56835938 1.26757812 C-16.32763672 1.21923828 -15.08691406 1.17089844 -13.80859375 1.12109375 C-12.67220459 1.0739624 -11.53581543 1.02683105 -10.36499023 0.97827148 C-6.82487074 1.00113085 -3.48940923 1.42392744 0 2 C0 1.34 0 0.68 0 0 Z " fill="#1C1A1A" transform="translate(801,409)"/>
<path d="M0 0 C0.66 0.66 1.32 1.32 2 2 C4.88142135 2.29538668 4.88142135 2.29538668 8.25 2.23046875 C10.12171875 2.22756836 10.12171875 2.22756836 12.03125 2.22460938 C13.3409375 2.21236328 14.650625 2.20011719 16 2.1875 C17.96453125 2.1865332 17.96453125 2.1865332 19.96875 2.18554688 C26.16800488 2.4997397 26.16800488 2.4997397 32 1 C34.625 1.9375 34.625 1.9375 37 3 C37.33 2.34 37.66 1.68 38 1 C42.455 1.99 42.455 1.99 47 3 C47.33 2.34 47.66 1.68 48 1 C48 1.66 48 2.32 48 3 C51.63 2.67 55.26 2.34 59 2 C55.39525564 4.40316291 53.79310409 4.24312609 49.5090332 4.22705078 C48.52814224 4.22748886 48.52814224 4.22748886 47.5274353 4.22793579 C45.36841511 4.2265437 43.20974107 4.21098857 41.05078125 4.1953125 C39.55291431 4.19158193 38.05504493 4.18873517 36.55717468 4.18673706 C32.61649833 4.17910403 28.67596962 4.15945845 24.73535156 4.1373291 C20.71356198 4.11686353 16.69174853 4.10773382 12.66992188 4.09765625 C4.7798802 4.07621218 -3.11004153 4.04208029 -11 4 C-10.67 3.34 -10.34 2.68 -10 2 C-7.03 2 -4.06 2 -1 2 C-0.67 1.34 -0.34 0.68 0 0 Z " fill="#252423" transform="translate(232,432)"/>
<path d="M0 0 C0.99 0 1.98 0 3 0 C5.33333333 0 7.66666667 0 10 0 C9.67 0.66 9.34 1.32 9 2 C-5.85 2 -20.7 2 -36 2 C-36.33 1.34 -36.66 0.68 -37 0 C-35.6070874 0.00785522 -35.6070874 0.00785522 -34.18603516 0.01586914 C-30.74576195 0.03289593 -27.30553341 0.04544273 -23.86523438 0.05493164 C-22.37531834 0.05996514 -20.88540726 0.06679242 -19.39550781 0.07543945 C-17.25584696 0.08754805 -15.11625132 0.09323807 -12.9765625 0.09765625 C-11.04417725 0.10551147 -11.04417725 0.10551147 -9.07275391 0.11352539 C-0.71583514 -0.19522777 -0.71583514 -0.19522777 0 0 Z " fill="#2B2A29" transform="translate(390,434)"/>
<path d="M0 0 C0.99 0.33 1.98 0.66 3 1 C4.89470816 1.0685495 6.7916834 1.08480372 8.6875 1.0625 C9.68136719 1.05347656 10.67523437 1.04445313 11.69921875 1.03515625 C12.45847656 1.02355469 13.21773437 1.01195312 14 1 C14 1.66 14 2.32 14 3 C4.76 3 -4.48 3 -14 3 C-10.6773117 0.78487447 -9.71729219 0.79747477 -5.875 0.9375 C-4.25076856 0.99164105 -2.62500568 1.02038538 -1 1 C-0.67 0.67 -0.34 0.34 0 0 Z " fill="#272626" transform="translate(790,328)"/>
<path d="M0 0 C0.99 0 1.98 0 3 0 C5.33333333 0 7.66666667 0 10 0 C9.67 0.66 9.34 1.32 9 2 C2.73 2 -3.54 2 -10 2 C-9.67 1.34 -9.34 0.68 -9 0 C-5.60271492 -1.01000367 -3.35987402 -1.00796221 0 0 Z " fill="#312F2F" transform="translate(390,434)"/>
<path d="M0 0 C2.97 0.33 5.94 0.66 9 1 C9 1.66 9 2.32 9 3 C6.03 3 3.06 3 0 3 C0 2.01 0 1.02 0 0 Z " fill="#343333" transform="translate(327,433)"/>
<path d="M0 0 C0.33 0 0.66 0 1 0 C1 5.94 1 11.88 1 18 C0.67 18 0.34 18 0 18 C0 12.06 0 6.12 0 0 Z " fill="#323231" transform="translate(404,289)"/>
<path d="M0 0 C5.61 0 11.22 0 17 0 C17 0.33 17 0.66 17 1 C11.39 1 5.78 1 0 1 C0 0.67 0 0.34 0 0 Z " fill="#424140" transform="translate(273,470)"/>
<path d="M0 0 C0.33 0 0.66 0 1 0 C1 5.61 1 11.22 1 17 C0.67 17 0.34 17 0 17 C0 11.39 0 5.78 0 0 Z " fill="#333333" transform="translate(404,308)"/>
<path d="M0 0 C0.33 0 0.66 0 1 0 C1 4.95 1 9.9 1 15 C0.67 15 0.34 15 0 15 C0 10.05 0 5.1 0 0 Z " fill="#343333" transform="translate(404,326)"/>
<path d="M0 0 C4.62 0 9.24 0 14 0 C14 0.33 14 0.66 14 1 C9.38 1 4.76 1 0 1 C0 0.67 0 0.34 0 0 Z " fill="#3F3E3E" transform="translate(848,527)"/>
<path d="M0 0 C0.33 0 0.66 0 1 0 C1 4.29 1 8.58 1 13 C0.67 13 0.34 13 0 13 C0 8.71 0 4.42 0 0 Z " fill="#343434" transform="translate(404,395)"/>
<path d="M0 0 C0.33 0 0.66 0 1 0 C1 3.96 1 7.92 1 12 C0.67 12 0.34 12 0 12 C0 8.04 0 4.08 0 0 Z " fill="#333334" transform="translate(404,382)"/>
<path d="M0 0 C0.33 0 0.66 0 1 0 C1 3.96 1 7.92 1 12 C0.67 12 0.34 12 0 12 C0 8.04 0 4.08 0 0 Z " fill="#343434" transform="translate(404,361)"/>
<path d="M0 0 C0.33 0 0.66 0 1 0 C1 2.64 1 5.28 1 8 C0.67 8 0.34 8 0 8 C0 5.36 0 2.72 0 0 Z " fill="#3E3E3D" transform="translate(96,568)"/>
<path d="M0 0 C0.66 1.32 1.32 2.64 2 4 C1.01 3.67 0.02 3.34 -1 3 C-0.67 2.01 -0.34 1.02 0 0 Z " fill="#434342" transform="translate(97,648)"/>
<path d="M0 0 C2.31 0 4.62 0 7 0 C7 0.33 7 0.66 7 1 C4.69 1 2.38 1 0 1 C0 0.67 0 0.34 0 0 Z " fill="#3F3E3F" transform="translate(872,527)"/>
<path d="M0 0 C2.31 0 4.62 0 7 0 C7 0.33 7 0.66 7 1 C4.69 1 2.38 1 0 1 C0 0.67 0 0.34 0 0 Z " fill="#3F3E3F" transform="translate(863,527)"/>
<path d="M0 0 C2.31 0 4.62 0 7 0 C7 0.33 7 0.66 7 1 C4.69 1 2.38 1 0 1 C0 0.67 0 0.34 0 0 Z " fill="#414140" transform="translate(824,527)"/>
<path d="M0 0 C2.31 0 4.62 0 7 0 C7 0.33 7 0.66 7 1 C4.69 1 2.38 1 0 1 C0 0.67 0 0.34 0 0 Z " fill="#434342" transform="translate(406,470)"/>
<path d="M0 0 C2.31 0 4.62 0 7 0 C7 0.33 7 0.66 7 1 C4.69 1 2.38 1 0 1 C0 0.67 0 0.34 0 0 Z " fill="#434341" transform="translate(398,470)"/>
<path d="M0 0 C2.31 0 4.62 0 7 0 C7 0.33 7 0.66 7 1 C4.69 1 2.38 1 0 1 C0 0.67 0 0.34 0 0 Z " fill="#3E3E3E" transform="translate(206,470)"/>
<path d="M0 0 C2.31 0 4.62 0 7 0 C7 0.33 7 0.66 7 1 C4.69 1 2.38 1 0 1 C0 0.67 0 0.34 0 0 Z " fill="#414140" transform="translate(891,446)"/>
<path d="M0 0 C0.33 0 0.66 0 1 0 C1 2.31 1 4.62 1 7 C0.67 7 0.34 7 0 7 C0 4.69 0 2.38 0 0 Z " fill="#353536" transform="translate(404,417)"/>
<path d="M0 0 C0.33 0 0.66 0 1 0 C1 2.31 1 4.62 1 7 C0.67 7 0.34 7 0 7 C0 4.69 0 2.38 0 0 Z " fill="#353535" transform="translate(404,409)"/>
<path d="M0 0 C0.33 0 0.66 0 1 0 C1 2.31 1 4.62 1 7 C0.67 7 0.34 7 0 7 C0 4.69 0 2.38 0 0 Z " fill="#343434" transform="translate(404,374)"/>
<path d="M0 0 C0.33 0 0.66 0 1 0 C1 2.31 1 4.62 1 7 C0.67 7 0.34 7 0 7 C0 4.69 0 2.38 0 0 Z " fill="#343435" transform="translate(404,353)"/>
<path d="M0 0 C0.33 0 0.66 0 1 0 C1 2.31 1 4.62 1 7 C0.67 7 0.34 7 0 7 C0 4.69 0 2.38 0 0 Z " fill="#333334" transform="translate(404,345)"/>
<path d="M0 0 C0.33 0 0.66 0 1 0 C1 1.98 1 3.96 1 6 C0.67 6 0.34 6 0 6 C0 4.02 0 2.04 0 0 Z " fill="#3F4040" transform="translate(96,560)"/>
<path d="M0 0 C1.98 0 3.96 0 6 0 C6 0.33 6 0.66 6 1 C4.02 1 2.04 1 0 1 C0 0.67 0 0.34 0 0 Z " fill="#413F40" transform="translate(888,527)"/>
<path d="M0 0 C1.98 0 3.96 0 6 0 C6 0.33 6 0.66 6 1 C4.02 1 2.04 1 0 1 C0 0.67 0 0.34 0 0 Z " fill="#434342" transform="translate(415,470)"/>
<path d="M0 0 C1.98 0 3.96 0 6 0 C6 0.33 6 0.66 6 1 C4.02 1 2.04 1 0 1 C0 0.67 0 0.34 0 0 Z " fill="#424241" transform="translate(367,470)"/>
<path d="M0 0 C1.98 0 3.96 0 6 0 C6 0.33 6 0.66 6 1 C4.02 1 2.04 1 0 1 C0 0.67 0 0.34 0 0 Z " fill="#444242" transform="translate(360,470)"/>
<path d="M0 0 C0.33 0 0.66 0 1 0 C1 1.65 1 3.3 1 5 C0.67 5 0.34 5 0 5 C0 3.35 0 1.7 0 0 Z " fill="#3E3E3F" transform="translate(96,552)"/>
<path d="M0 0 C1.65 0 3.3 0 5 0 C5 0.33 5 0.66 5 1 C3.35 1 1.7 1 0 1 C0 0.67 0 0.34 0 0 Z " fill="#424141" transform="translate(352,470)"/>
<path d="M0 0 C1.65 0 3.3 0 5 0 C5 0.33 5 0.66 5 1 C3.35 1 1.7 1 0 1 C0 0.67 0 0.34 0 0 Z " fill="#434142" transform="translate(267,470)"/>
<path d="M0 0 C1.65 0 3.3 0 5 0 C5 0.33 5 0.66 5 1 C3.35 1 1.7 1 0 1 C0 0.67 0 0.34 0 0 Z " fill="#403F3F" transform="translate(216,470)"/>
<path d="M0 0 C1.65 0 3.3 0 5 0 C5 0.33 5 0.66 5 1 C3.35 1 1.7 1 0 1 C0 0.67 0 0.34 0 0 Z " fill="#424141" transform="translate(826,446)"/>
<path d="M0 0 C0.99 0.33 1.98 0.66 3 1 C2.01 1 1.02 1 0 1 C0 0.67 0 0.34 0 0 Z " fill="#40403F" transform="translate(268,748)"/>
<path d="M0 0 C1 4 1 4 1 4 Z " fill="#3B3C3B" transform="translate(708,641)"/>
<path d="M0 0 C1 4 1 4 1 4 Z " fill="#3D3D3E" transform="translate(96,585)"/>
<path d="M0 0 C1 4 1 4 1 4 Z " fill="#404040" transform="translate(96,544)"/>
<path d="M0 0 C1 4 1 4 1 4 Z " fill="#414142" transform="translate(96,532)"/>
<path d="M0 0 C4 1 4 1 4 1 Z " fill="#413F3F" transform="translate(895,527)"/>
<path d="M0 0 C4 1 4 1 4 1 Z " fill="#444242" transform="translate(374,470)"/>
<path d="M0 0 C4 1 4 1 4 1 Z " fill="#424241" transform="translate(339,470)"/>
<path d="M0 0 C4 1 4 1 4 1 Z " fill="#444342" transform="translate(291,470)"/>
<path d="M0 0 C4 1 4 1 4 1 Z " fill="#424140" transform="translate(262,470)"/>
<path d="M0 0 C4 1 4 1 4 1 Z " fill="#414040" transform="translate(833,446)"/>
<path d="M0 0 C4 1 4 1 4 1 Z " fill="#414040" transform="translate(819,446)"/>
<path d="M0 0 C4 1 4 1 4 1 Z " fill="#434343" transform="translate(777,446)"/>
<path d="M0 0 C1 4 1 4 1 4 Z " fill="#353535" transform="translate(404,428)"/>
<path d="M0 0 C1 4 1 4 1 4 Z " fill="#434343" transform="translate(752,424)"/>
<path d="M0 0 C0.33 0.66 0.66 1.32 1 2 C0.01 1.67 -0.98 1.34 -2 1 C-1.34 0.67 -0.68 0.34 0 0 Z " fill="#424140" transform="translate(682,352)"/>
<path d="M0 0 C0.66 0 1.32 0 2 0 C1.67 0.66 1.34 1.32 1 2 C0.67 1.34 0.34 0.68 0 0 Z " fill="#403F3E" transform="translate(576,733)"/>
<path d="M0 0 C0.99 0.495 0.99 0.495 2 1 C1.01 1.495 1.01 1.495 0 2 C0 1.34 0 0.68 0 0 Z " fill="#3F3F3F" transform="translate(344,726)"/>
<path d="M0 0 C3 1 3 1 3 1 Z " fill="#3D3C3C" transform="translate(642,713)"/>
<path d="M0 0 C0.99 0.495 0.99 0.495 2 1 C1.01 1.495 1.01 1.495 0 2 C0 1.34 0 0.68 0 0 Z " fill="#3E3C3C" transform="translate(544,701)"/>
<path d="M0 0 C0.33 0.66 0.66 1.32 1 2 C0.34 1.67 -0.32 1.34 -1 1 C-0.67 0.67 -0.34 0.34 0 0 Z " fill="#393937" transform="translate(177,677)"/>
<path d="" fill="#3A3A39" transform="translate(0,0)"/>
<path d="" fill="#3E4040" transform="translate(0,0)"/>
<path d="" fill="#3E3F3F" transform="translate(0,0)"/>
<path d="M0 0 C3 1 3 1 3 1 Z " fill="#3A3838" transform="translate(231,544)"/>
<path d="M0 0 C3 1 3 1 3 1 Z " fill="#414040" transform="translate(880,527)"/>
<path d="M0 0 C3 1 3 1 3 1 Z " fill="#414040" transform="translate(835,527)"/>
<path d="M0 0 C3 1 3 1 3 1 Z " fill="#434241" transform="translate(394,470)"/>
<path d="M0 0 C3 1 3 1 3 1 Z " fill="#444243" transform="translate(347,470)"/>
<path d="M0 0 C3 1 3 1 3 1 Z " fill="#424140" transform="translate(310,470)"/>
<path d="M0 0 C3 1 3 1 3 1 Z " fill="#434241" transform="translate(255,470)"/>
<path d="M0 0 C0.66 0.66 1.32 1.32 2 2 C1.34 2 0.68 2 0 2 C0 1.34 0 0.68 0 0 Z " fill="#474745" transform="translate(848,408)"/>
<path d="M0 0 C3 1 3 1 3 1 Z " fill="#403F3F" transform="translate(767,365)"/>
<path d="M0 0 C2 1 2 1 2 1 Z " fill="#424140" transform="translate(621,748)"/>
<path d="M0 0 C2 1 2 1 2 1 Z " fill="#434242" transform="translate(655,747)"/>
<path d="M0 0 C2 1 2 1 2 1 Z " fill="#41403E" transform="translate(592,741)"/>
<path d="" fill="#3E3C3C" transform="translate(0,0)"/>
<path d="" fill="#3D3B3A" transform="translate(0,0)"/>
<path d="M0 0 C2 1 2 1 2 1 Z " fill="#3A3A3A" transform="translate(627,713)"/>
<path d="M0 0 C2 1 2 1 2 1 Z " fill="#3C393C" transform="translate(649,712)"/>
<path d="M0 0 C2 1 2 1 2 1 Z " fill="#343233" transform="translate(262,712)"/>
<path d="" fill="#3C3B3A" transform="translate(0,0)"/>
<path d="" fill="#3A3A3A" transform="translate(0,0)"/>
<path d="M0 0 C2 1 2 1 2 1 Z " fill="#383837" transform="translate(244,705)"/>
<path d="M0 0 C2 1 2 1 2 1 Z " fill="#373537" transform="translate(312,704)"/>
<path d="M0 0 C2 1 2 1 2 1 Z " fill="#3D3C3B" transform="translate(189,703)"/>
<path d="" fill="#383838" transform="translate(0,0)"/>
<path d="M0 0 C2 1 2 1 2 1 Z " fill="#3B3B39" transform="translate(328,692)"/>
<path d="" fill="#3B3A38" transform="translate(0,0)"/>
<path d="M0 0 C2 1 2 1 2 1 Z " fill="#393937" transform="translate(178,682)"/>
<path d="" fill="#383837" transform="translate(0,0)"/>
<path d="" fill="#393938" transform="translate(0,0)"/>
<path d="" fill="#39393A" transform="translate(0,0)"/>
<path d="" fill="#383635" transform="translate(0,0)"/>
<path d="" fill="#3F4040" transform="translate(0,0)"/>
<path d="" fill="#3B3D3E" transform="translate(0,0)"/>
<path d="M0 0 C2 1 2 1 2 1 Z " fill="#3A3937" transform="translate(322,587)"/>
<path d="M0 0 C2 1 2 1 2 1 Z " fill="#383738" transform="translate(726,584)"/>
<path d="M0 0 C2 1 2 1 2 1 Z " fill="#393937" transform="translate(237,583)"/>
<path d="" fill="#3B3A39" transform="translate(0,0)"/>
<path d="" fill="#404141" transform="translate(0,0)"/>
<path d="" fill="#404040" transform="translate(0,0)"/>
<path d="M0 0 C2 1 2 1 2 1 Z " fill="#3C3D3C" transform="translate(613,536)"/>
<path d="M0 0 C2 1 2 1 2 1 Z " fill="#3E3E3D" transform="translate(254,536)"/>
<path d="M0 0 C2 1 2 1 2 1 Z " fill="#404040" transform="translate(916,527)"/>
<path d="M0 0 C2 1 2 1 2 1 Z " fill="#3F3F3F" transform="translate(912,527)"/>
<path d="M0 0 C2 1 2 1 2 1 Z " fill="#414140" transform="translate(904,527)"/>
<path d="M0 0 C2 1 2 1 2 1 Z " fill="#403E3F" transform="translate(901,527)"/>
<path d="M0 0 C2 1 2 1 2 1 Z " fill="#424042" transform="translate(884,527)"/>
<path d="M0 0 C2 1 2 1 2 1 Z " fill="#414041" transform="translate(820,527)"/>
<path d="M0 0 C2 1 2 1 2 1 Z " fill="#424242" transform="translate(816,527)"/>
<path d="" fill="#393738" transform="translate(0,0)"/>
<path d="" fill="#4A474A" transform="translate(0,0)"/>
<path d="M0 0 C2 1 2 1 2 1 Z " fill="#434242" transform="translate(344,470)"/>
<path d="M0 0 C2 1 2 1 2 1 Z " fill="#424240" transform="translate(336,470)"/>
<path d="M0 0 C2 1 2 1 2 1 Z " fill="#424241" transform="translate(315,470)"/>
<path d="M0 0 C2 1 2 1 2 1 Z " fill="#424140" transform="translate(296,470)"/>
<path d="M0 0 C2 1 2 1 2 1 Z " fill="#424041" transform="translate(259,470)"/>
<path d="M0 0 C2 1 2 1 2 1 Z " fill="#434242" transform="translate(246,470)"/>
<path d="M0 0 C2 1 2 1 2 1 Z " fill="#434241" transform="translate(243,470)"/>
<path d="M0 0 C2 1 2 1 2 1 Z " fill="#42413F" transform="translate(240,470)"/>
<path d="M0 0 C2 1 2 1 2 1 Z " fill="#414142" transform="translate(235,470)"/>
<path d="M0 0 C2 1 2 1 2 1 Z " fill="#414041" transform="translate(232,470)"/>
<path d="M0 0 C2 1 2 1 2 1 Z " fill="#433F41" transform="translate(227,470)"/>
<path d="M0 0 C2 1 2 1 2 1 Z " fill="#413F40" transform="translate(224,470)"/>
<path d="" fill="#414241" transform="translate(0,0)"/>
<path d="" fill="#403F40" transform="translate(0,0)"/>
<path d="" fill="#464646" transform="translate(0,0)"/>
<path d="M0 0 C2 1 2 1 2 1 Z " fill="#434241" transform="translate(908,446)"/>
<path d="M0 0 C2 1 2 1 2 1 Z " fill="#424141" transform="translate(902,446)"/>
<path d="M0 0 C2 1 2 1 2 1 Z " fill="#403F40" transform="translate(899,446)"/>
<path d="M0 0 C2 1 2 1 2 1 Z " fill="#414141" transform="translate(875,446)"/>
<path d="M0 0 C2 1 2 1 2 1 Z " fill="#41403F" transform="translate(867,446)"/>
<path d="M0 0 C2 1 2 1 2 1 Z " fill="#414040" transform="translate(795,446)"/>
<path d="M0 0 C2 1 2 1 2 1 Z " fill="#444343" transform="translate(787,446)"/>
<path d="M0 0 C2 1 2 1 2 1 Z " fill="#444443" transform="translate(784,446)"/>
<path d="" fill="#434444" transform="translate(0,0)"/>
<path d="" fill="#454543" transform="translate(0,0)"/>
<path d="" fill="#353535" transform="translate(0,0)"/>
<path d="" fill="#474746" transform="translate(0,0)"/>
<path d="" fill="#414040" transform="translate(0,0)"/>
<path d="M0 0 C2 1 2 1 2 1 Z " fill="#403E3F" transform="translate(800,365)"/>
<path d="M0 0 C2 1 2 1 2 1 Z " fill="#403F3F" transform="translate(728,365)"/>
<path d="" fill="#414142" transform="translate(0,0)"/>
<path d="" fill="#333434" transform="translate(0,0)"/>
<path d="M0 0 C2 1 2 1 2 1 Z " fill="#3C3A39" transform="translate(292,321)"/>
<path d="" fill="#3E3E3B" transform="translate(0,0)"/>
<path d="" fill="#333433" transform="translate(0,0)"/>
<path d="" fill="#413F3F" transform="translate(0,0)"/>
<path d="M0 0 C2 1 2 1 2 1 Z " fill="#403F3F" transform="translate(296,256)"/>
<path d="M0 0 C2 1 2 1 2 1 Z " fill="#454545" transform="translate(311,249)"/>
<path d="" fill="#626363" transform="translate(0,0)"/>
<path d="" fill="#5F5F5D" transform="translate(0,0)"/>
<path d="" fill="#5D5E5C" transform="translate(0,0)"/>
<path d="" fill="#5F6160" transform="translate(0,0)"/>
<path d="" fill="#565656" transform="translate(0,0)"/>
<path d="" fill="#595857" transform="translate(0,0)"/>
<path d="" fill="#616263" transform="translate(0,0)"/>
<path d="" fill="#60605F" transform="translate(0,0)"/>
<path d="" fill="#5C5B5A" transform="translate(0,0)"/>
<path d="" fill="#5C595C" transform="translate(0,0)"/>
<path d="" fill="#5E5F5E" transform="translate(0,0)"/>
<path d="" fill="#605F61" transform="translate(0,0)"/>
<path d="" fill="#5E5E5E" transform="translate(0,0)"/>
<path d="" fill="#616160" transform="translate(0,0)"/>
<path d="" fill="#626263" transform="translate(0,0)"/>
<path d="" fill="#585859" transform="translate(0,0)"/>
<path d="" fill="#434040" transform="translate(0,0)"/>
<path d="" fill="#44423F" transform="translate(0,0)"/>
<path d="" fill="#3F3F3F" transform="translate(0,0)"/>
<path d="" fill="#404041" transform="translate(0,0)"/>
<path d="" fill="#3E3F3E" transform="translate(0,0)"/>
<path d="" fill="#404241" transform="translate(0,0)"/>
<path d="" fill="#40403E" transform="translate(0,0)"/>
<path d="" fill="#434142" transform="translate(0,0)"/>
<path d="" fill="#404142" transform="translate(0,0)"/>
<path d="" fill="#424341" transform="translate(0,0)"/>
<path d="" fill="#3E3F3D" transform="translate(0,0)"/>
<path d="" fill="#434142" transform="translate(0,0)"/>
<path d="" fill="#40403D" transform="translate(0,0)"/>
<path d="" fill="#4E504F" transform="translate(0,0)"/>
<path d="" fill="#403E3F" transform="translate(0,0)"/>
<path d="" fill="#434040" transform="translate(0,0)"/>
<path d="" fill="#434141" transform="translate(0,0)"/>
<path d="" fill="#413E3E" transform="translate(0,0)"/>
<path d="" fill="#3E3C3D" transform="translate(0,0)"/>
<path d="" fill="#414040" transform="translate(0,0)"/>
<path d="" fill="#403F40" transform="translate(0,0)"/>
<path d="" fill="#403E3F" transform="translate(0,0)"/>
<path d="" fill="#3D3D3E" transform="translate(0,0)"/>
<path d="" fill="#3F3C3C" transform="translate(0,0)"/>
<path d="" fill="#3F3F40" transform="translate(0,0)"/>
<path d="" fill="#3F4040" transform="translate(0,0)"/>
<path d="" fill="#3F3F3E" transform="translate(0,0)"/>
<path d="" fill="#3E3F3E" transform="translate(0,0)"/>
<path d="" fill="#403F3F" transform="translate(0,0)"/>
<path d="" fill="#3F413E" transform="translate(0,0)"/>
<path d="" fill="#3F3E3F" transform="translate(0,0)"/>
<path d="" fill="#403E3E" transform="translate(0,0)"/>
<path d="" fill="#3E3C3C" transform="translate(0,0)"/>
<path d="" fill="#403F3D" transform="translate(0,0)"/>
<path d="" fill="#5D5D5E" transform="translate(0,0)"/>
<path d="" fill="#3E3C3B" transform="translate(0,0)"/>
<path d="" fill="#3D3B3C" transform="translate(0,0)"/>
<path d="" fill="#403E3C" transform="translate(0,0)"/>
<path d="" fill="#353434" transform="translate(0,0)"/>
<path d="" fill="#3C3B3A" transform="translate(0,0)"/>
<path d="" fill="#3C3D3B" transform="translate(0,0)"/>
<path d="" fill="#383738" transform="translate(0,0)"/>
<path d="" fill="#3B3B39" transform="translate(0,0)"/>
<path d="" fill="#3B3C3A" transform="translate(0,0)"/>
<path d="" fill="#3F3E3E" transform="translate(0,0)"/>
<path d="" fill="#3C3A3A" transform="translate(0,0)"/>
<path d="" fill="#3C3B39" transform="translate(0,0)"/>
<path d="" fill="#383635" transform="translate(0,0)"/>
<path d="" fill="#3C3A3A" transform="translate(0,0)"/>
<path d="" fill="#393936" transform="translate(0,0)"/>
<path d="" fill="#3A3939" transform="translate(0,0)"/>
<path d="" fill="#3A3939" transform="translate(0,0)"/>
<path d="" fill="#3A3A39" transform="translate(0,0)"/>
<path d="" fill="#3D393A" transform="translate(0,0)"/>
<path d="" fill="#3D3B39" transform="translate(0,0)"/>
<path d="" fill="#393839" transform="translate(0,0)"/>
<path d="" fill="#3C3B3A" transform="translate(0,0)"/>
<path d="" fill="#3E3C3C" transform="translate(0,0)"/>
<path d="" fill="#3C3A3B" transform="translate(0,0)"/>
<path d="" fill="#373638" transform="translate(0,0)"/>
<path d="" fill="#3A373B" transform="translate(0,0)"/>
<path d="" fill="#38383A" transform="translate(0,0)"/>
<path d="" fill="#3B3C3B" transform="translate(0,0)"/>
<path d="" fill="#3E3B3C" transform="translate(0,0)"/>
<path d="" fill="#3B3A39" transform="translate(0,0)"/>
<path d="" fill="#3A3A39" transform="translate(0,0)"/>
<path d="" fill="#393738" transform="translate(0,0)"/>
<path d="" fill="#373637" transform="translate(0,0)"/>
<path d="" fill="#3C3C3B" transform="translate(0,0)"/>
<path d="" fill="#3D3D3C" transform="translate(0,0)"/>
<path d="" fill="#3C3A3B" transform="translate(0,0)"/>
<path d="" fill="#3C3D3B" transform="translate(0,0)"/>
<path d="" fill="#3B3939" transform="translate(0,0)"/>
<path d="" fill="#3B3A37" transform="translate(0,0)"/>
<path d="" fill="#38373A" transform="translate(0,0)"/>
<path d="" fill="#3E3B3A" transform="translate(0,0)"/>
<path d="" fill="#3B3939" transform="translate(0,0)"/>
<path d="" fill="#383738" transform="translate(0,0)"/>
<path d="" fill="#3E3D3C" transform="translate(0,0)"/>
<path d="" fill="#3F3D3D" transform="translate(0,0)"/>
<path d="" fill="#3D3C3B" transform="translate(0,0)"/>
<path d="" fill="#393A3A" transform="translate(0,0)"/>
<path d="" fill="#3B3B3B" transform="translate(0,0)"/>
<path d="" fill="#3A3A3B" transform="translate(0,0)"/>
<path d="" fill="#39363B" transform="translate(0,0)"/>
<path d="" fill="#383939" transform="translate(0,0)"/>
<path d="" fill="#383938" transform="translate(0,0)"/>
<path d="" fill="#393838" transform="translate(0,0)"/>
<path d="" fill="#393938" transform="translate(0,0)"/>
<path d="" fill="#383737" transform="translate(0,0)"/>
<path d="" fill="#464748" transform="translate(0,0)"/>
<path d="" fill="#454242" transform="translate(0,0)"/>
<path d="" fill="#464444" transform="translate(0,0)"/>
<path d="" fill="#464645" transform="translate(0,0)"/>
<path d="" fill="#59585A" transform="translate(0,0)"/>
<path d="" fill="#3B3A3A" transform="translate(0,0)"/>
<path d="" fill="#434543" transform="translate(0,0)"/>
<path d="" fill="#383536" transform="translate(0,0)"/>
<path d="" fill="#3A393A" transform="translate(0,0)"/>
<path d="" fill="#5B5B5A" transform="translate(0,0)"/>
<path d="" fill="#3A3A3A" transform="translate(0,0)"/>
<path d="" fill="#3B3B3B" transform="translate(0,0)"/>
<path d="" fill="#373635" transform="translate(0,0)"/>
<path d="" fill="#404040" transform="translate(0,0)"/>
<path d="" fill="#373837" transform="translate(0,0)"/>
<path d="" fill="#434343" transform="translate(0,0)"/>
<path d="" fill="#434042" transform="translate(0,0)"/>
<path d="" fill="#414240" transform="translate(0,0)"/>
<path d="" fill="#3C3B3B" transform="translate(0,0)"/>
<path d="" fill="#434245" transform="translate(0,0)"/>
<path d="" fill="#3F3E3D" transform="translate(0,0)"/>
<path d="" fill="#3A3C3B" transform="translate(0,0)"/>
<path d="" fill="#393738" transform="translate(0,0)"/>
<path d="" fill="#383837" transform="translate(0,0)"/>
<path d="" fill="#393837" transform="translate(0,0)"/>
<path d="" fill="#393739" transform="translate(0,0)"/>
<path d="" fill="#3C3C3C" transform="translate(0,0)"/>
<path d="" fill="#3E4040" transform="translate(0,0)"/>
<path d="" fill="#3C393B" transform="translate(0,0)"/>
<path d="" fill="#5A5A59" transform="translate(0,0)"/>
<path d="" fill="#3D3A39" transform="translate(0,0)"/>
<path d="" fill="#393636" transform="translate(0,0)"/>
<path d="" fill="#383838" transform="translate(0,0)"/>
<path d="" fill="#3F3E40" transform="translate(0,0)"/>
<path d="" fill="#3A3839" transform="translate(0,0)"/>
<path d="" fill="#383637" transform="translate(0,0)"/>
<path d="" fill="#3C3D3C" transform="translate(0,0)"/>
<path d="" fill="#3A3938" transform="translate(0,0)"/>
<path d="" fill="#3E3F3E" transform="translate(0,0)"/>
<path d="" fill="#3D3D3E" transform="translate(0,0)"/>
<path d="" fill="#3D3E3C" transform="translate(0,0)"/>
<path d="" fill="#38373A" transform="translate(0,0)"/>
<path d="" fill="#3C3C3C" transform="translate(0,0)"/>
<path d="" fill="#3A3A38" transform="translate(0,0)"/>
<path d="" fill="#393738" transform="translate(0,0)"/>
<path d="" fill="#3B3C38" transform="translate(0,0)"/>
<path d="" fill="#3C3B3A" transform="translate(0,0)"/>
<path d="" fill="#3B3D3A" transform="translate(0,0)"/>
<path d="" fill="#3B3B38" transform="translate(0,0)"/>
<path d="" fill="#3C3A3B" transform="translate(0,0)"/>
<path d="" fill="#3D3B3D" transform="translate(0,0)"/>
<path d="" fill="#3C3C39" transform="translate(0,0)"/>
<path d="" fill="#3D3B3A" transform="translate(0,0)"/>
<path d="" fill="#3F3F3D" transform="translate(0,0)"/>
<path d="" fill="#3D3D3B" transform="translate(0,0)"/>
<path d="" fill="#393838" transform="translate(0,0)"/>
<path d="" fill="#403C3C" transform="translate(0,0)"/>
<path d="" fill="#3C3C3C" transform="translate(0,0)"/>
<path d="" fill="#3F403F" transform="translate(0,0)"/>
<path d="" fill="#3F3D3C" transform="translate(0,0)"/>
<path d="" fill="#3C3939" transform="translate(0,0)"/>
<path d="" fill="#3E3C3C" transform="translate(0,0)"/>
<path d="" fill="#3F3F3F" transform="translate(0,0)"/>
<path d="" fill="#3D3B3A" transform="translate(0,0)"/>
<path d="" fill="#3D3D3D" transform="translate(0,0)"/>
<path d="" fill="#403F3F" transform="translate(0,0)"/>
<path d="" fill="#3E3B39" transform="translate(0,0)"/>
<path d="" fill="#3E3C3D" transform="translate(0,0)"/>
<path d="" fill="#3A3A38" transform="translate(0,0)"/>
<path d="" fill="#3E3A3B" transform="translate(0,0)"/>
<path d="" fill="#3D3E3C" transform="translate(0,0)"/>
<path d="" fill="#3F3D3C" transform="translate(0,0)"/>
<path d="" fill="#3F3D3D" transform="translate(0,0)"/>
<path d="" fill="#3C3A3B" transform="translate(0,0)"/>
<path d="" fill="#3E3E3F" transform="translate(0,0)"/>
<path d="" fill="#3D3C3C" transform="translate(0,0)"/>
<path d="" fill="#3D3C3E" transform="translate(0,0)"/>
<path d="" fill="#3C3C3A" transform="translate(0,0)"/>
<path d="" fill="#3D3D3D" transform="translate(0,0)"/>
<path d="" fill="#3F3E3E" transform="translate(0,0)"/>
<path d="" fill="#3E3C3A" transform="translate(0,0)"/>
<path d="" fill="#3E3D3E" transform="translate(0,0)"/>
<path d="" fill="#3F3E3C" transform="translate(0,0)"/>
<path d="" fill="#3F3E3F" transform="translate(0,0)"/>
<path d="" fill="#3D3C3A" transform="translate(0,0)"/>
<path d="" fill="#3E403D" transform="translate(0,0)"/>
<path d="" fill="#3E3E3C" transform="translate(0,0)"/>
<path d="" fill="#3F3E3D" transform="translate(0,0)"/>
<path d="" fill="#3A3B3B" transform="translate(0,0)"/>
<path d="" fill="#3A383A" transform="translate(0,0)"/>
<path d="" fill="#3E3D40" transform="translate(0,0)"/>
<path d="" fill="#393839" transform="translate(0,0)"/>
<path d="" fill="#3F3E3F" transform="translate(0,0)"/>
<path d="" fill="#414040" transform="translate(0,0)"/>
<path d="" fill="#353736" transform="translate(0,0)"/>
<path d="" fill="#3F3F3F" transform="translate(0,0)"/>
<path d="" fill="#3E3C3E" transform="translate(0,0)"/>
<path d="" fill="#3B3F3D" transform="translate(0,0)"/>
<path d="" fill="#3B3B3A" transform="translate(0,0)"/>
<path d="" fill="#41413E" transform="translate(0,0)"/>
<path d="" fill="#414140" transform="translate(0,0)"/>
<path d="" fill="#40403E" transform="translate(0,0)"/>
<path d="" fill="#404140" transform="translate(0,0)"/>
<path d="" fill="#39393A" transform="translate(0,0)"/>
<path d="" fill="#3F3F3E" transform="translate(0,0)"/>
<path d="" fill="#403E3E" transform="translate(0,0)"/>
<path d="" fill="#3C3C39" transform="translate(0,0)"/>
<path d="" fill="#3D3A3A" transform="translate(0,0)"/>
<path d="" fill="#3E403C" transform="translate(0,0)"/>
<path d="" fill="#3C3C39" transform="translate(0,0)"/>
<path d="" fill="#3E3C3C" transform="translate(0,0)"/>
<path d="" fill="#424042" transform="translate(0,0)"/>
<path d="" fill="#423F40" transform="translate(0,0)"/>
<path d="" fill="#3D3C3A" transform="translate(0,0)"/>
<path d="" fill="#3C3A3B" transform="translate(0,0)"/>
<path d="" fill="#40403D" transform="translate(0,0)"/>
<path d="" fill="#3E3E3B" transform="translate(0,0)"/>
<path d="" fill="#42403F" transform="translate(0,0)"/>
<path d="" fill="#3D3E3D" transform="translate(0,0)"/>
<path d="" fill="#3B3B3C" transform="translate(0,0)"/>
<path d="" fill="#403F41" transform="translate(0,0)"/>
<path d="" fill="#3B3B3B" transform="translate(0,0)"/>
<path d="" fill="#424144" transform="translate(0,0)"/>
<path d="" fill="#424042" transform="translate(0,0)"/>
<path d="" fill="#40403F" transform="translate(0,0)"/>
<path d="" fill="#3F4040" transform="translate(0,0)"/>
<path d="" fill="#413F3F" transform="translate(0,0)"/>
<path d="" fill="#414043" transform="translate(0,0)"/>
<path d="" fill="#414143" transform="translate(0,0)"/>
<path d="" fill="#434345" transform="translate(0,0)"/>
<path d="" fill="#424040" transform="translate(0,0)"/>
<path d="" fill="#434341" transform="translate(0,0)"/>
<path d="" fill="#5C5C5B" transform="translate(0,0)"/>
<path d="" fill="#464646" transform="translate(0,0)"/>
<path d="" fill="#3C3B39" transform="translate(0,0)"/>
<path d="" fill="#464846" transform="translate(0,0)"/>
<path d="" fill="#3C3C3A" transform="translate(0,0)"/>
<path d="" fill="#454647" transform="translate(0,0)"/>
<path d="" fill="#444544" transform="translate(0,0)"/>
<path d="" fill="#38373A" transform="translate(0,0)"/>
<path d="" fill="#3D3D3E" transform="translate(0,0)"/>
<path d="" fill="#3D3E3D" transform="translate(0,0)"/>
<path d="" fill="#484848" transform="translate(0,0)"/>
<path d="" fill="#474545" transform="translate(0,0)"/>
<path d="" fill="#413E3C" transform="translate(0,0)"/>
<path d="" fill="#494946" transform="translate(0,0)"/>
<path d="" fill="#454747" transform="translate(0,0)"/>
<path d="" fill="#484745" transform="translate(0,0)"/>
<path d="" fill="#444544" transform="translate(0,0)"/>
<path d="" fill="#4B4A49" transform="translate(0,0)"/>
<path d="" fill="#575757" transform="translate(0,0)"/>
<path d="" fill="#444541" transform="translate(0,0)"/>
<path d="" fill="#414340" transform="translate(0,0)"/>
<path d="" fill="#444544" transform="translate(0,0)"/>
<path d="" fill="#434344" transform="translate(0,0)"/>
<path d="" fill="#454444" transform="translate(0,0)"/>
<path d="" fill="#424241" transform="translate(0,0)"/>
<path d="" fill="#444445" transform="translate(0,0)"/>
<path d="" fill="#434443" transform="translate(0,0)"/>
<path d="" fill="#585857" transform="translate(0,0)"/>
<path d="" fill="#3C3D3C" transform="translate(0,0)"/>
<path d="" fill="#404042" transform="translate(0,0)"/>
<path d="" fill="#42413F" transform="translate(0,0)"/>
<path d="" fill="#434144" transform="translate(0,0)"/>
<path d="" fill="#3F3E40" transform="translate(0,0)"/>
<path d="" fill="#494747" transform="translate(0,0)"/>
<path d="" fill="#434040" transform="translate(0,0)"/>
<path d="" fill="#454542" transform="translate(0,0)"/>
<path d="" fill="#434140" transform="translate(0,0)"/>
<path d="" fill="#424241" transform="translate(0,0)"/>
<path d="" fill="#41403F" transform="translate(0,0)"/>
<path d="" fill="#434343" transform="translate(0,0)"/>
<path d="" fill="#423F3F" transform="translate(0,0)"/>
<path d="" fill="#413F3F" transform="translate(0,0)"/>
<path d="" fill="#38393A" transform="translate(0,0)"/>
<path d="" fill="#444442" transform="translate(0,0)"/>
<path d="" fill="#474A49" transform="translate(0,0)"/>
<path d="" fill="#484748" transform="translate(0,0)"/>
<path d="" fill="#4B4B4A" transform="translate(0,0)"/>
<path d="" fill="#3C3D3C" transform="translate(0,0)"/>
<path d="" fill="#5B5859" transform="translate(0,0)"/>
<path d="" fill="#404040" transform="translate(0,0)"/>
<path d="" fill="#414242" transform="translate(0,0)"/>
<path d="" fill="#414342" transform="translate(0,0)"/>
<path d="" fill="#424143" transform="translate(0,0)"/>
<path d="" fill="#424142" transform="translate(0,0)"/>
<path d="" fill="#454444" transform="translate(0,0)"/>
<path d="" fill="#424342" transform="translate(0,0)"/>
<path d="" fill="#444342" transform="translate(0,0)"/>
<path d="" fill="#444343" transform="translate(0,0)"/>
<path d="" fill="#42423F" transform="translate(0,0)"/>
<path d="" fill="#414241" transform="translate(0,0)"/>
<path d="" fill="#424040" transform="translate(0,0)"/>
<path d="" fill="#424141" transform="translate(0,0)"/>
<path d="" fill="#413F40" transform="translate(0,0)"/>
<path d="" fill="#414040" transform="translate(0,0)"/>
<path d="" fill="#414141" transform="translate(0,0)"/>
<path d="" fill="#404040" transform="translate(0,0)"/>
<path d="" fill="#3F3E3F" transform="translate(0,0)"/>
<path d="" fill="#403E3E" transform="translate(0,0)"/>
<path d="" fill="#3F3F3F" transform="translate(0,0)"/>
<path d="" fill="#424241" transform="translate(0,0)"/>
<path d="" fill="#424040" transform="translate(0,0)"/>
<path d="" fill="#424242" transform="translate(0,0)"/>
<path d="" fill="#424042" transform="translate(0,0)"/>
<path d="" fill="#424243" transform="translate(0,0)"/>
<path d="" fill="#424140" transform="translate(0,0)"/>
<path d="" fill="#444443" transform="translate(0,0)"/>
<path d="" fill="#454543" transform="translate(0,0)"/>
<path d="" fill="#464546" transform="translate(0,0)"/>
<path d="" fill="#454645" transform="translate(0,0)"/>
<path d="" fill="#433E40" transform="translate(0,0)"/>
<path d="" fill="#484846" transform="translate(0,0)"/>
<path d="" fill="#423F3D" transform="translate(0,0)"/>
<path d="" fill="#484747" transform="translate(0,0)"/>
<path d="" fill="#3F3F3E" transform="translate(0,0)"/>
<path d="" fill="#3E3D3E" transform="translate(0,0)"/>
<path d="" fill="#474847" transform="translate(0,0)"/>
<path d="" fill="#474546" transform="translate(0,0)"/>
<path d="" fill="#464645" transform="translate(0,0)"/>
<path d="" fill="#464546" transform="translate(0,0)"/>
<path d="" fill="#3F3E40" transform="translate(0,0)"/>
<path d="" fill="#434443" transform="translate(0,0)"/>
<path d="" fill="#454444" transform="translate(0,0)"/>
<path d="" fill="#434342" transform="translate(0,0)"/>
<path d="" fill="#454545" transform="translate(0,0)"/>
<path d="" fill="#464643" transform="translate(0,0)"/>
<path d="" fill="#464645" transform="translate(0,0)"/>
<path d="" fill="#454745" transform="translate(0,0)"/>
<path d="" fill="#464541" transform="translate(0,0)"/>
<path d="" fill="#474544" transform="translate(0,0)"/>
<path d="" fill="#464744" transform="translate(0,0)"/>
<path d="" fill="#434442" transform="translate(0,0)"/>
<path d="" fill="#41403F" transform="translate(0,0)"/>
<path d="" fill="#3B3B3D" transform="translate(0,0)"/>
<path d="" fill="#434441" transform="translate(0,0)"/>
<path d="" fill="#404141" transform="translate(0,0)"/>
<path d="" fill="#424444" transform="translate(0,0)"/>
<path d="" fill="#606060" transform="translate(0,0)"/>
<path d="" fill="#494649" transform="translate(0,0)"/>
<path d="" fill="#393536" transform="translate(0,0)"/>
<path d="" fill="#545456" transform="translate(0,0)"/>
<path d="" fill="#434545" transform="translate(0,0)"/>
<path d="" fill="#434242" transform="translate(0,0)"/>
<path d="" fill="#4B4A4B" transform="translate(0,0)"/>
<path d="" fill="#3E3D3E" transform="translate(0,0)"/>
<path d="" fill="#3C3C3C" transform="translate(0,0)"/>
<path d="" fill="#4B4848" transform="translate(0,0)"/>
<path d="" fill="#494848" transform="translate(0,0)"/>
<path d="" fill="#494747" transform="translate(0,0)"/>
<path d="" fill="#494847" transform="translate(0,0)"/>
<path d="" fill="#4B4A4B" transform="translate(0,0)"/>
<path d="" fill="#474745" transform="translate(0,0)"/>
<path d="" fill="#464545" transform="translate(0,0)"/>
<path d="" fill="#454846" transform="translate(0,0)"/>
<path d="" fill="#464643" transform="translate(0,0)"/>
<path d="" fill="#464646" transform="translate(0,0)"/>
<path d="" fill="#474744" transform="translate(0,0)"/>
<path d="" fill="#454647" transform="translate(0,0)"/>
<path d="" fill="#444445" transform="translate(0,0)"/>
<path d="" fill="#464646" transform="translate(0,0)"/>
<path d="" fill="#454443" transform="translate(0,0)"/>
<path d="" fill="#454444" transform="translate(0,0)"/>
<path d="" fill="#464543" transform="translate(0,0)"/>
<path d="" fill="#393A3A" transform="translate(0,0)"/>
<path d="" fill="#363535" transform="translate(0,0)"/>
<path d="" fill="#3D3D3E" transform="translate(0,0)"/>
<path d="" fill="#565556" transform="translate(0,0)"/>
<path d="" fill="#41413F" transform="translate(0,0)"/>
<path d="" fill="#333234" transform="translate(0,0)"/>
<path d="" fill="#3B3A39" transform="translate(0,0)"/>
<path d="" fill="#3E3E3C" transform="translate(0,0)"/>
<path d="" fill="#404042" transform="translate(0,0)"/>
<path d="" fill="#414141" transform="translate(0,0)"/>
<path d="" fill="#444042" transform="translate(0,0)"/>
<path d="" fill="#403D3F" transform="translate(0,0)"/>
<path d="" fill="#3F3F3E" transform="translate(0,0)"/>
<path d="" fill="#41413F" transform="translate(0,0)"/>
<path d="" fill="#41403F" transform="translate(0,0)"/>
<path d="" fill="#414041" transform="translate(0,0)"/>
<path d="" fill="#40403F" transform="translate(0,0)"/>
<path d="" fill="#42433F" transform="translate(0,0)"/>
<path d="" fill="#444242" transform="translate(0,0)"/>
<path d="" fill="#454344" transform="translate(0,0)"/>
<path d="" fill="#373737" transform="translate(0,0)"/>
<path d="" fill="#464341" transform="translate(0,0)"/>
<path d="" fill="#444143" transform="translate(0,0)"/>
<path d="" fill="#393736" transform="translate(0,0)"/>
<path d="" fill="#434344" transform="translate(0,0)"/>
<path d="" fill="#403F3D" transform="translate(0,0)"/>
<path d="" fill="#444241" transform="translate(0,0)"/>
<path d="" fill="#3E3D3A" transform="translate(0,0)"/>
<path d="" fill="#363434" transform="translate(0,0)"/>
<path d="" fill="#3D3E3D" transform="translate(0,0)"/>
<path d="" fill="#393838" transform="translate(0,0)"/>
<path d="" fill="#413D40" transform="translate(0,0)"/>
<path d="" fill="#474647" transform="translate(0,0)"/>
<path d="" fill="#3F3E3F" transform="translate(0,0)"/>
<path d="" fill="#3C3837" transform="translate(0,0)"/>
<path d="" fill="#383737" transform="translate(0,0)"/>
<path d="" fill="#424141" transform="translate(0,0)"/>
<path d="" fill="#41423F" transform="translate(0,0)"/>
<path d="" fill="#363434" transform="translate(0,0)"/>
<path d="" fill="#464445" transform="translate(0,0)"/>
<path d="" fill="#454446" transform="translate(0,0)"/>
<path d="" fill="#41413F" transform="translate(0,0)"/>
<path d="" fill="#3E3C3C" transform="translate(0,0)"/>
<path d="" fill="#3E3C3A" transform="translate(0,0)"/>
<path d="" fill="#444646" transform="translate(0,0)"/>
<path d="" fill="#424045" transform="translate(0,0)"/>
<path d="" fill="#444245" transform="translate(0,0)"/>
<path d="" fill="#454344" transform="translate(0,0)"/>
<path d="" fill="#484546" transform="translate(0,0)"/>
<path d="" fill="#474948" transform="translate(0,0)"/>
<path d="" fill="#535352" transform="translate(0,0)"/>
<path d="" fill="#474345" transform="translate(0,0)"/>
<path d="" fill="#464546" transform="translate(0,0)"/>
<path d="" fill="#4A4547" transform="translate(0,0)"/>
<path d="" fill="#434444" transform="translate(0,0)"/>
<path d="" fill="#434344" transform="translate(0,0)"/>
<path d="" fill="#464545" transform="translate(0,0)"/>
<path d="" fill="#454544" transform="translate(0,0)"/>
<path d="" fill="#434343" transform="translate(0,0)"/>
<path d="" fill="#454443" transform="translate(0,0)"/>
<path d="" fill="#474444" transform="translate(0,0)"/>
<path d="" fill="#454544" transform="translate(0,0)"/>
<path d="" fill="#474646" transform="translate(0,0)"/>
<path d="" fill="#484746" transform="translate(0,0)"/>
<path d="" fill="#484847" transform="translate(0,0)"/>
<path d="" fill="#494949" transform="translate(0,0)"/>
<path d="" fill="#494948" transform="translate(0,0)"/>
<path d="" fill="#494748" transform="translate(0,0)"/>
<path d="" fill="#494848" transform="translate(0,0)"/>
<path d="" fill="#484747" transform="translate(0,0)"/>
<path d="" fill="#474747" transform="translate(0,0)"/>
<path d="" fill="#474745" transform="translate(0,0)"/>
<path d="" fill="#464446" transform="translate(0,0)"/>
<path d="" fill="#464645" transform="translate(0,0)"/>
<path d="" fill="#464845" transform="translate(0,0)"/>
<path d="" fill="#464547" transform="translate(0,0)"/>
<path d="" fill="#454545" transform="translate(0,0)"/>
<path d="" fill="#464445" transform="translate(0,0)"/>
<path d="" fill="#474546" transform="translate(0,0)"/>
<path d="" fill="#454747" transform="translate(0,0)"/>
<path d="" fill="#606263" transform="translate(0,0)"/>
<path d="" fill="#707172" transform="translate(0,0)"/>
<path d="" fill="#767575" transform="translate(0,0)"/>
<path d="" fill="#777979" transform="translate(0,0)"/>
<path d="" fill="#797A7B" transform="translate(0,0)"/>
<path d="" fill="#7A797A" transform="translate(0,0)"/>
<path d="" fill="#7C7B7D" transform="translate(0,0)"/>
</svg>
